<svg width="128" height="128" viewBox="0 0 128 128" fill="none" xmlns="http://www.w3.org/2000/svg">
<path d="M11.5033 128C17.7095 128 25.2621 123.32 33.951 114.09C39.2397 108.472 46.3163 105.25 53.3665 105.25H74.6337C81.7366 105.25 89.088 108.555 94.2992 114.09C103.111 123.45 110.371 128 116.497 128C119.921 128 127.897 126.175 127.999 109.273C128.104 91.9519 119.852 64.9912 107.4 52.4637C102.643 47.6775 97.5959 45.2508 92.3995 45.2508C85.8963 45.2508 82.8596 47.3225 80.1806 49.1505C78.1582 50.5302 76.2379 51.8399 72.1865 52.6009C73.8625 49.9515 75.25 46.7442 75.25 43.3755C75.25 35.4282 67.5338 28.3657 66.5003 27.4558C64.8546 25.9533 60.2502 20.8609 60.2502 16.8759C60.2502 12.9452 64.8586 7.99478 66.4741 6.56905C68.0283 5.20457 68.1845 2.83885 66.8221 1.28162C65.4581 -0.277107 63.0891 -0.434855 61.5306 0.928876C60.6319 1.71537 52.75 8.84377 52.75 16.8759C52.75 24.8673 60.5852 32.2149 61.4786 33.0264C61.4959 33.0419 61.5131 33.0574 61.5306 33.0727C63.1441 34.4844 67.7498 39.4076 67.7498 43.3753C67.7498 46.6812 64.4901 50.7082 62.4959 52.7502H56.6825C52.026 52.0199 49.9813 50.6252 47.8193 49.15C45.1404 47.322 42.1037 45.2503 35.6005 45.2503C30.4041 45.2503 25.3571 47.677 20.6 52.4632C8.14838 64.991 -0.104008 91.9516 0.000990397 109.272C0.103239 126.175 8.07888 128 11.5033 128ZM25.9194 57.7508C29.2171 54.4329 32.4745 52.7507 35.6007 52.7507C39.7892 52.7507 41.3022 53.7832 43.5926 55.3459C48.8078 58.9043 53.9292 60.2506 56.3985 60.2506H71.6015C74.1627 60.2506 79.2699 58.8511 84.4073 55.3459C86.6978 53.7832 88.2108 52.7507 92.3992 52.7507C95.5254 52.7507 98.7826 54.4329 102.081 57.7508C113.052 68.7887 120.593 93.7386 120.499 109.227C120.465 114.838 119.215 120.5 116.497 120.5C114.734 120.5 109.574 119.374 99.7599 108.949C93.0597 101.832 83.9016 97.75 74.6337 97.75H53.3665C44.2574 97.75 35.1903 101.832 28.4903 108.949C18.6762 119.374 13.3416 120.5 11.5036 120.5C8.78562 120.5 7.53489 114.838 7.50089 109.227C7.40689 93.7386 14.9483 68.7887 25.9194 57.7508Z" fill="white"/>
<path d="M26.4999 82.7498H30.2499V86.4997C30.2499 88.5707 31.9289 90.2497 33.9999 90.2497C36.0708 90.2497 37.7498 88.5707 37.7498 86.4997V82.7498H41.4998C43.5707 82.7498 45.2497 81.0708 45.2497 78.9998C45.2497 76.9289 43.5707 75.2499 41.4998 75.2499H37.7498V71.4999C37.7498 69.429 36.0708 67.75 33.9999 67.75C31.9289 67.75 30.2499 69.429 30.2499 71.4999V75.2499H26.4999C24.429 75.2499 22.75 76.9289 22.75 78.9998C22.75 81.0708 24.429 82.7498 26.4999 82.7498Z" fill="white"/>
<path d="M93.999 75.25C96.0701 75.25 97.749 73.5711 97.749 71.5C97.749 69.4289 96.0701 67.75 93.999 67.75C91.928 67.75 90.249 69.4289 90.249 71.5C90.249 73.5711 91.928 75.25 93.999 75.25Z" fill="white"/>
<path d="M93.999 90.249C96.0701 90.249 97.749 88.5701 97.749 86.499C97.749 84.428 96.0701 82.749 93.999 82.749C91.928 82.749 90.249 84.428 90.249 86.499C90.249 88.5701 91.928 90.249 93.999 90.249Z" fill="white"/>
<path d="M86.5 82.75C88.5711 82.75 90.25 81.0711 90.25 79C90.25 76.9289 88.5711 75.25 86.5 75.25C84.4289 75.25 82.75 76.9289 82.75 79C82.75 81.0711 84.4289 82.75 86.5 82.75Z" fill="white"/>
<path d="M101.499 82.75C103.57 82.75 105.249 81.0711 105.249 79C105.249 76.9289 103.57 75.25 101.499 75.25C99.428 75.25 97.749 76.9289 97.749 79C97.749 81.0711 99.428 82.75 101.499 82.75Z" fill="white"/>
<path d="M56.4999 82.7499H71.4997C73.5707 82.7499 75.2497 81.0709 75.2497 78.9999C75.2497 76.929 73.5707 75.25 71.4997 75.25H56.4999C54.429 75.25 52.75 76.929 52.75 78.9999C52.75 81.0709 54.429 82.7499 56.4999 82.7499Z" fill="white"/>
</svg>
