<svg width="128" height="128" viewBox="0 0 128 128" fill="none" xmlns="http://www.w3.org/2000/svg">
<path d="M63.9999 0C28.711 0 0 28.711 0 63.9999C0 99.2887 28.711 128 63.9999 128C99.2887 128 128 99.2887 128 63.9999C128 28.711 99.289 0 63.9999 0ZM63.9999 116.869C34.8493 116.869 11.1303 93.1505 11.1303 63.9999C11.1303 34.8493 34.8493 11.1305 63.9999 11.1305C93.1505 11.1305 116.869 34.8493 116.869 63.9999C116.869 93.1505 93.1505 116.869 63.9999 116.869Z" fill="white"/>
<path d="M93.7958 34.2091C92.989 33.3965 91.7702 33.1628 90.7293 33.6193L51.7729 50.315C51.1163 50.5933 50.593 51.1218 50.3092 51.7787L33.6135 90.7351C33.1627 91.7815 33.3965 92.9945 34.2033 93.8016C34.7376 94.3247 35.45 94.6085 36.1734 94.6085C36.5407 94.6085 36.9135 94.5305 37.2699 94.386L76.2263 77.6903C76.8829 77.4065 77.4062 76.8835 77.69 76.2266L94.3857 37.2702C94.831 36.2238 94.5972 35.0105 93.7958 34.2091ZM63.9996 69.565C60.9331 69.565 58.4345 67.0662 58.4345 63.9999C58.4345 60.9334 60.9333 58.4348 63.9996 58.4348C67.0661 58.4348 69.5647 60.9337 69.5647 63.9999C69.565 67.0662 67.0661 69.565 63.9996 69.565Z" fill="white"/>
</svg>
