<svg width="128" height="128" viewBox="0 0 128 128" fill="none" xmlns="http://www.w3.org/2000/svg">
<path d="M63.9997 118.666C33.8557 118.666 9.33301 94.1437 9.33301 63.9997C9.33301 33.8557 33.8557 9.33301 63.9997 9.33301C94.1437 9.33301 118.666 33.8557 118.666 63.9997C118.666 94.1437 94.1437 118.666 63.9997 118.666ZM63.9997 19.9997C39.7383 19.9997 19.9997 39.7383 19.9997 63.9997C19.9997 88.261 39.7383 108 63.9997 108C88.261 108 108 88.261 108 63.9997C108 39.7383 88.261 19.9997 63.9997 19.9997Z" fill="white"/>
<path d="M64.0003 29.3333C61.0563 29.3333 58.667 26.944 58.667 24V5.33333C58.667 2.38933 61.0563 0 64.0003 0C66.9443 0 69.3337 2.38933 69.3337 5.33333V24C69.3337 26.944 66.9443 29.3333 64.0003 29.3333Z" fill="white"/>
<path d="M122.667 69.3337H104C101.056 69.3337 98.667 66.9443 98.667 64.0003C98.667 61.0563 101.056 58.667 104 58.667H122.667C125.611 58.667 128 61.0563 128 64.0003C128 66.9443 125.611 69.3337 122.667 69.3337Z" fill="white"/>
<path d="M64.0003 128C61.0563 128 58.667 125.611 58.667 122.667V104C58.667 101.056 61.0563 98.667 64.0003 98.667C66.9443 98.667 69.3337 101.056 69.3337 104V122.667C69.3337 125.611 66.9443 128 64.0003 128Z" fill="white"/>
<path d="M24 69.3337H5.33333C2.38933 69.3337 0 66.9443 0 64.0003C0 61.0563 2.38933 58.667 5.33333 58.667H24C26.944 58.667 29.3333 61.0563 29.3333 64.0003C29.3333 66.9443 26.944 69.3337 24 69.3337Z" fill="white"/>
<path d="M64 80C55.1787 80 48 72.8213 48 64C48 55.1787 55.1787 48 64 48C72.8213 48 80 55.1787 80 64C80 72.8213 72.8213 80 64 80ZM64 58.6667C61.0613 58.6667 58.6667 61.0613 58.6667 64C58.6667 66.9387 61.0613 69.3333 64 69.3333C66.9387 69.3333 69.3333 66.9387 69.3333 64C69.3333 61.0613 66.9387 58.6667 64 58.6667Z" fill="white"/>
</svg>
